<?xml version="1.0" encoding="utf-8"?>
<svg xmlns="http://www.w3.org/2000/svg" viewBox="0 0 30 30" width="480" height="480">
  <path d="M15 3C12.410866 3 10.156284 3.8058168 8.9453125 5L6 5C4.343 5 3 6.343 3 8L3 13L5 13L5 11C5 10.448 5.448 10 6 10L13 10C13.552 10 14 10.448 14 11L14 13L16 13L16 11C16 10.448 16.448 10 17 10L24 10C24.552 10 25 10.448 25 11L25 13L27 13L27 8C27 6.343 25.657 5 24 5L21.054688 5C19.843716 3.8058168 17.589134 3 15 3 z M 1.984375 13.986328 A 1.0001 1.0001 0 0 0 1 15L1 26 A 1.0001 1.0001 0 1 0 3 26L3 25L27 25L27 26 A 1.0001 1.0001 0 1 0 29 26L29 15 A 1.0001 1.0001 0 0 0 27.984375 13.986328 A 1.0001 1.0001 0 0 0 27.839844 14L2.1542969 14 A 1.0001 1.0001 0 0 0 1.984375 13.986328 z" fill="#22a77d" />
</svg>