<?xml version="1.0" encoding="utf-8"?>
<svg xmlns="http://www.w3.org/2000/svg" viewBox="0 0 30 30" width="480" height="480">
  <path d="M4 4C4 4 2 8 2 12C2 15.594784 3.7573877 18.551333 8 18.949219L8 23.242188L4.7382812 24.03125L4.7382812 24.033203 A 1.0001 1.0001 0 0 0 5 26L8.8320312 26 A 1.0001 1.0001 0 0 0 9.1582031 26L13 26 A 1.0001 1.0001 0 0 0 13.261719 24.03125L10 23.242188L10 18.949219C14.242612 18.551333 16 15.594784 16 12C16 8 14 4 14 4L9 4L4 4 z M 19 4C18.448 4 18 4.448 18 5L18 10.785156C18 13.127346 19.541266 15.23203 21.734375 15.822266L21 23.826172L21.007812 23.826172 A 2 2 0 0 0 21 24 A 2 2 0 0 0 23 26 A 2 2 0 0 0 25 24 A 2 2 0 0 0 24.990234 23.826172L24.992188 23.826172L24.259766 15.833984C26.410191 15.274998 28 13.325156 28 11L28 5C28 4.448 27.552 4 27 4C26.448 4 26 4.448 26 5L26 10C26 10.553 25.552 11 25 11C24.448 11 24 10.553 24 10L24 5C24 4.448 23.552 4 23 4C22.448 4 22 4.448 22 5L22 10C22 10.553 21.552 11 21 11C20.448 11 20 10.553 20 10L20 5C20 4.448 19.552 4 19 4 z M 22.992188 15.996094C22.994794 15.996098 22.997395 15.998046 23 15.998047L23 22 A 2 2 0 0 0 22.992188 22L22.992188 15.996094 z" fill="#247BA0" />
</svg>